<svg width="24" height="24" viewBox="0 0 24 24" fill="none" xmlns="http://www.w3.org/2000/svg">
<path fill-rule="evenodd" clip-rule="evenodd" d="M16.7071 9.70711C17.0976 9.31658 17.0976 8.68342 16.7071 8.29289C16.3166 7.90237 15.6834 7.90237 15.2929 8.29289L11 12.5858L9.20711 10.7929C8.81658 10.4024 8.18342 10.4024 7.79289 10.7929C7.40237 11.1834 7.40237 11.8166 7.79289 12.2071L10.2929 14.7071C10.6834 15.0976 11.3166 15.0976 11.7071 14.7071L16.7071 9.70711Z" fill="#8C8C8C"/>
<path d="M0.5 12C0.5 14.4591 0.632416 16.401 0.973435 17.9355C1.31319 19.4643 1.85333 20.5577 2.6478 21.3522C3.44228 22.1467 4.53573 22.6868 6.06451 23.0266C7.59896 23.3676 9.54091 23.5 12 23.5C14.4591 23.5 16.401 23.3676 17.9355 23.0266C19.4643 22.6868 20.5577 22.1467 21.3522 21.3522C22.1467 20.5577 22.6868 19.4643 23.0266 17.9355C23.3676 16.401 23.5 14.4591 23.5 12C23.5 9.54091 23.3676 7.59896 23.0266 6.06451C22.6868 4.53573 22.1467 3.44228 21.3522 2.6478C20.5577 1.85333 19.4643 1.31319 17.9355 0.973434C16.401 0.632416 14.4591 0.5 12 0.5C9.54091 0.5 7.59896 0.632416 6.06451 0.973434C4.53573 1.31319 3.44228 1.85333 2.6478 2.6478C1.85333 3.44228 1.31319 4.53573 0.973435 6.06451C0.632416 7.59896 0.5 9.54091 0.5 12Z" stroke="#8C8C8C" stroke-linecap="round" stroke-linejoin="round"/>
</svg>
