<svg width="23" height="24" viewBox="0 0 23 24" fill="none" xmlns="http://www.w3.org/2000/svg">
<path fill-rule="evenodd" clip-rule="evenodd" d="M12.3612 3.50893C12.8957 3.61607 13.3887 3.80804 13.8402 4.08482C14.2917 4.36161 14.6834 4.71429 15.0151 5.14286C15.6417 4.35714 16.4296 3.83929 17.3787 3.58929C18.3278 3.33929 19.2769 3.40179 20.226 3.77679C21.1751 4.15179 21.8939 4.75446 22.3823 5.58482C22.8707 6.41518 23.0457 7.32143 22.9075 8.30357C22.7693 9.28571 22.35 10.1116 21.6497 10.7812C20.9494 11.4509 20.0832 11.8482 19.0511 11.9732C19.346 12.5982 19.475 13.25 19.4382 13.9286C19.4013 14.6071 19.2078 15.2455 18.8576 15.8438C18.5075 16.442 18.0421 16.9241 17.4616 17.2902C16.8811 17.6562 16.2314 17.8839 15.5127 17.9732C15.9181 18.9018 16.0011 19.8304 15.7615 20.7589C15.5219 21.6875 14.9967 22.4598 14.1858 23.0759C13.3749 23.692 12.4718 24 11.4766 24C10.4814 24 9.57839 23.692 8.76749 23.0759C7.95659 22.4598 7.43135 21.6875 7.19177 20.7589C6.95219 19.8304 7.03512 18.9018 7.44057 17.9732C6.72182 17.8839 6.07218 17.6562 5.49165 17.2902C4.91112 16.9241 4.44578 16.442 4.09561 15.8438C3.74545 15.2455 3.55194 14.6071 3.51509 13.9286C3.47823 13.25 3.60723 12.5982 3.90211 11.9732C2.87005 11.8482 2.00387 11.4509 1.30355 10.7812C0.603227 10.1116 0.183956 9.28571 0.0457349 8.30357C-0.0924862 7.32143 0.0825939 6.41518 0.570975 5.58482C1.05936 4.75446 1.77811 4.15179 2.72723 3.77679C3.67634 3.40179 4.62546 3.33929 5.57458 3.58929C6.5237 3.83929 7.31156 4.35714 7.93816 5.14286C8.26989 4.71429 8.66152 4.36161 9.11304 4.08482C9.56457 3.80804 10.0576 3.61607 10.592 3.50893V1.71429H8.82278C8.56476 1.71429 8.35283 1.63393 8.18696 1.47321C8.0211 1.3125 7.93816 1.10714 7.93816 0.857143C7.93816 0.607143 8.0211 0.401786 8.18696 0.241071C8.35283 0.0803571 8.56476 0 8.82278 0H14.1305C14.3885 0 14.6004 0.0803571 14.7663 0.241071C14.9322 0.401786 15.0151 0.607143 15.0151 0.857143C15.0151 1.10714 14.9322 1.3125 14.7663 1.47321C14.6004 1.63393 14.3885 1.71429 14.1305 1.71429H12.3612V3.50893ZM11.4766 10.2857C12.2322 10.2679 12.8588 10.0179 13.3564 9.53571C13.854 9.05357 14.1028 8.44643 14.1028 7.71429C14.1028 6.98214 13.854 6.375 13.3564 5.89286C12.8588 5.41071 12.2322 5.16964 11.4766 5.16964C10.721 5.16964 10.0944 5.41071 9.59682 5.89286C9.09922 6.375 8.85042 6.98214 8.85042 7.71429C8.85042 8.44643 9.09922 9.05357 9.59682 9.53571C10.0944 10.0179 10.721 10.2679 11.4766 10.2857ZM4.3997 10.2857C5.15531 10.2679 5.78191 10.0179 6.27951 9.53571C6.77711 9.05357 7.0259 8.44643 7.0259 7.71429C7.0259 6.98214 6.77711 6.375 6.27951 5.89286C5.78191 5.41071 5.15531 5.16964 4.3997 5.16964C3.64409 5.16964 3.01749 5.41071 2.51989 5.89286C2.0223 6.375 1.7735 6.98214 1.7735 7.71429C1.7735 8.44643 2.0223 9.05357 2.51989 9.53571C3.01749 10.0179 3.64409 10.2679 4.3997 10.2857ZM7.93816 16.2857C8.69377 16.2679 9.32037 16.0179 9.81797 15.5357C10.3156 15.0536 10.5644 14.4464 10.5644 13.7143C10.5644 12.9821 10.3156 12.375 9.81797 11.8929C9.32037 11.4107 8.69377 11.1696 7.93816 11.1696C7.18255 11.1696 6.55595 11.4107 6.05835 11.8929C5.56076 12.375 5.31196 12.9821 5.31196 13.7143C5.31196 14.4464 5.56076 15.0536 6.05835 15.5357C6.55595 16.0179 7.18255 16.2679 7.93816 16.2857ZM11.4766 22.2857C12.2322 22.2679 12.8588 22.0179 13.3564 21.5357C13.854 21.0536 14.1028 20.4464 14.1028 19.7143C14.1028 18.9821 13.854 18.375 13.3564 17.8929C12.8588 17.4107 12.2322 17.1696 11.4766 17.1696C10.721 17.1696 10.0944 17.4107 9.59682 17.8929C9.09922 18.375 8.85042 18.9821 8.85042 19.7143C8.85042 20.4464 9.09922 21.0536 9.59682 21.5357C10.0944 22.0179 10.721 22.2679 11.4766 22.2857ZM15.0151 16.2857C15.7707 16.2679 16.3973 16.0179 16.8949 15.5357C17.3925 15.0536 17.6413 14.4464 17.6413 13.7143C17.6413 12.9821 17.3925 12.375 16.8949 11.8929C16.3973 11.4107 15.7707 11.1696 15.0151 11.1696C14.2595 11.1696 13.6329 11.4107 13.1353 11.8929C12.6377 12.375 12.3889 12.9821 12.3889 13.7143C12.3889 14.4464 12.6377 15.0536 13.1353 15.5357C13.6329 16.0179 14.2595 16.2679 15.0151 16.2857ZM18.5535 10.2857C19.3092 10.2679 19.9358 10.0179 20.4334 9.53571C20.931 9.05357 21.1797 8.44643 21.1797 7.71429C21.1797 6.98214 20.931 6.375 20.4334 5.89286C19.9358 5.41071 19.3092 5.16964 18.5535 5.16964C17.7979 5.16964 17.1713 5.41071 16.6737 5.89286C16.1761 6.375 15.9273 6.98214 15.9273 7.71429C15.9273 8.44643 16.1761 9.05357 16.6737 9.53571C17.1713 10.0179 17.7979 10.2679 18.5535 10.2857Z" fill="#FBFDFC"/>
</svg>
