<svg width="17" height="16" viewBox="0 0 17 16" fill="none" xmlns="http://www.w3.org/2000/svg">
<path fill-rule="evenodd" clip-rule="evenodd" d="M14.3202 0.703727C13.7345 0.11794 12.7847 0.11794 12.1989 0.703727L10.7847 2.11794L10.4312 2.47149L2.34116 10.5615C2.25883 10.6438 2.1968 10.7442 2.15998 10.8546L0.827671 14.8516C0.671319 15.3206 1.11757 15.7669 1.58662 15.6105L5.58353 14.2782C5.69399 14.2414 5.79436 14.1794 5.87669 14.097L13.9667 6.00703L14.3202 5.65347L15.7345 4.23926C16.3202 3.65347 16.3202 2.70373 15.7345 2.11794L14.3202 0.703727ZM13.2596 5.29992L12.1989 4.23926L11.1383 3.1786L3.09 11.2269L2.02934 14.4088L5.21132 13.3482L13.2596 5.29992ZM12.906 1.41083C13.1013 1.21557 13.4179 1.21557 13.6131 1.41083L15.0273 2.82505C15.2226 3.02031 15.2226 3.33689 15.0273 3.53215L13.9667 4.59281L12.906 3.53215L11.8454 2.47149L12.906 1.41083Z" fill="black"/>
</svg>
